<svg fill="#000000" height="200px" width="200px" id="Layer_1" data-name="Layer 1" xmlns="http://www.w3.org/2000/svg" viewBox="-1.6 -1.6 19.20 19.20"><g id="SVGRepo_bgCarrier" stroke-width="0"><rect x="-1.6" y="-1.6" width="19.20" height="19.20" rx="0" fill="#ffffff" strokewidth="0"></rect></g><g id="SVGRepo_tracerCarrier" stroke-linecap="round" stroke-linejoin="round"></g><g id="SVGRepo_iconCarrier"> <path class="cls-1" d="M14.25,3H1.75A.74027.74027,0,0,0,1,3.73016v8.53968A.74029.74029,0,0,0,1.75,13h12.5a.74029.74029,0,0,0,.75-.73016V3.73016A.74027.74027,0,0,0,14.25,3ZM7.965,10.059H6.97374V7.77311L5.9825,9.34956,4.99125,7.77311V10.059H4V5.934h.91L5.9825,7.51038,7.055,5.934h.91Zm2.45884.0071L8.84766,7.94479H9.94749V5.934h.99124V7.94479H12Z"></path> </g></svg>